<svg width="35" height="35" viewBox="0 0 35 35" fill="none" xmlns="http://www.w3.org/2000/svg">
<path fill-rule="evenodd" clip-rule="evenodd" d="M17.4853 2.91663C9.43525 2.91663 2.9165 9.44996 2.9165 17.5C2.9165 25.55 9.43525 32.0833 17.4853 32.0833C25.5498 32.0833 32.0832 25.55 32.0832 17.5C32.0832 9.44996 25.5498 2.91663 17.4853 2.91663ZM18.9582 18.9583V10.2083H16.0415V18.9583H18.9582ZM18.9582 24.7916V21.875H16.0415V24.7916H18.9582ZM5.83317 17.5C5.83317 23.9458 11.054 29.1666 17.4998 29.1666C23.9457 29.1666 29.1665 23.9458 29.1665 17.5C29.1665 11.0541 23.9457 5.83329 17.4998 5.83329C11.054 5.83329 5.83317 11.0541 5.83317 17.5Z" fill="#183C0A"/>
</svg>
