<svg width="23" height="17" viewBox="0 0 23 17" fill="none" xmlns="http://www.w3.org/2000/svg">
<path d="M22.0621 8.52408C22.0621 8.46997 22.0621 8.40847 22.0597 8.33714C22.0572 8.13789 22.0523 7.91405 22.0474 7.67545C22.0277 6.98917 21.9932 6.30534 21.939 5.66088C21.8652 4.77289 21.7568 4.03249 21.6091 3.47658C21.4532 2.89643 21.1476 2.36733 20.7228 1.94215C20.2981 1.51697 19.7691 1.2106 19.1886 1.05368C18.4918 0.866732 17.1277 0.751122 15.2071 0.679788C14.2936 0.64535 13.3161 0.623212 12.3385 0.610913C11.9963 0.605994 11.6786 0.603534 11.393 0.601074H10.6691C10.3835 0.603534 10.0658 0.605994 9.72359 0.610913C8.74606 0.623212 7.76853 0.64535 6.85502 0.679788C4.93443 0.753582 3.56786 0.869192 2.87349 1.05368C2.29289 1.21022 1.76366 1.51645 1.33886 1.94169C0.914049 2.36693 0.60858 2.89624 0.453062 3.47658C0.302862 4.03249 0.196983 4.77289 0.123115 5.66088C0.0689442 6.30534 0.034472 6.98917 0.0147737 7.67545C0.00738684 7.91405 0.00492455 8.13789 0.00246225 8.33714C0.00246225 8.40847 0 8.46997 0 8.52408V8.66183C0 8.71595 -3.76083e-08 8.77744 0.00246225 8.84878C0.00492455 9.04802 0.00984913 9.27186 0.0147737 9.51046C0.034472 10.1967 0.0689442 10.8806 0.123115 11.525C0.196983 12.413 0.305324 13.1534 0.453062 13.7093C0.768235 14.8876 1.69406 15.8174 2.87349 16.1322C3.56786 16.3192 4.93443 16.4348 6.85502 16.5061C7.76853 16.5406 8.74606 16.5627 9.72359 16.575C10.0658 16.5799 10.3835 16.5824 10.6691 16.5848H11.393C11.6786 16.5824 11.9963 16.5799 12.3385 16.575C13.3161 16.5627 14.2936 16.5406 15.2071 16.5061C17.1277 16.4323 18.4943 16.3167 19.1886 16.1322C20.3681 15.8174 21.2939 14.89 21.6091 13.7093C21.7593 13.1534 21.8652 12.413 21.939 11.525C21.9932 10.8806 22.0277 10.1967 22.0474 9.51046C22.0547 9.27186 22.0572 9.04802 22.0597 8.84878C22.0597 8.77744 22.0621 8.71595 22.0621 8.66183V8.52408ZM20.2893 8.65199C20.2893 8.70365 20.2893 8.76022 20.2868 8.82664C20.2844 9.0185 20.2794 9.23004 20.2745 9.45881C20.2573 10.1131 20.2228 10.7674 20.1711 11.375C20.1046 12.167 20.011 12.8164 19.8953 13.2518C19.7427 13.82 19.2945 14.2702 18.7282 14.4202C18.2111 14.558 16.9086 14.6687 15.1382 14.7351C14.2419 14.7695 13.2767 14.7916 12.3139 14.8039C11.9766 14.8089 11.6639 14.8113 11.3832 14.8113H10.679L9.74821 14.8039C8.78546 14.7916 7.8227 14.7695 6.92396 14.7351C5.15358 14.6662 3.84856 14.558 3.33394 14.4202C2.76762 14.2677 2.31948 13.82 2.16682 13.2518C2.05109 12.8164 1.95752 12.167 1.89104 11.375C1.83933 10.7674 1.80732 10.1131 1.78762 9.45881C1.78024 9.23004 1.77777 9.01604 1.77531 8.82664C1.77531 8.76022 1.77285 8.70119 1.77285 8.65199V8.53392C1.77285 8.48227 1.77285 8.42569 1.77531 8.35928C1.77777 8.16741 1.7827 7.95587 1.78762 7.72711C1.80486 7.0728 1.83933 6.41849 1.89104 5.81093C1.95752 5.01887 2.05109 4.36948 2.16682 3.9341C2.31948 3.36589 2.76762 2.91574 3.33394 2.7657C3.85102 2.62795 5.15358 2.51726 6.92396 2.45084C7.82024 2.4164 8.78546 2.39427 9.74821 2.38197C10.0855 2.37705 10.3983 2.37459 10.679 2.37459H11.3832L12.3139 2.38197C13.2767 2.39427 14.2394 2.4164 15.1382 2.45084C16.9086 2.51972 18.2136 2.62795 18.7282 2.7657C19.2945 2.9182 19.7427 3.36589 19.8953 3.9341C20.011 4.36948 20.1046 5.01887 20.1711 5.81093C20.2228 6.41849 20.2548 7.0728 20.2745 7.72711C20.2819 7.95587 20.2844 8.16987 20.2868 8.35928C20.2868 8.42569 20.2893 8.48472 20.2893 8.53392V8.65199ZM8.83963 11.8891L14.5521 8.56836L8.83963 5.29683V11.8891Z" fill="white" fill-opacity="0.7"/>
</svg>
