<svg width="55" height="55" viewBox="0 0 55 55" fill="none" xmlns="http://www.w3.org/2000/svg">
<rect width="55" height="55" rx="27.5" fill="#5C940D" fill-opacity="0.1"/>
<path d="M30.875 36.9792C27.2146 36.9792 24.05 34.9083 22.475 31.875H30.875V28.9583H21.5125C21.4396 28.4771 21.3958 27.9958 21.3958 27.5C21.3958 27.0042 21.4396 26.5229 21.5125 26.0417H30.875V23.125H22.475C24.05 20.0917 27.2292 18.0208 30.875 18.0208C33.2229 18.0208 35.3813 18.8813 37.0438 20.3104L39.625 17.7292C37.3063 15.6438 34.2292 14.375 30.875 14.375C25.1583 14.375 20.3167 18.0354 18.5083 23.125H13.375V26.0417H17.8375C17.7792 26.5229 17.75 27.0042 17.75 27.5C17.75 27.9958 17.7792 28.4771 17.8375 28.9583H13.375V31.875H18.5083C20.3167 36.9646 25.1583 40.625 30.875 40.625C34.2437 40.625 37.3063 39.3563 39.625 37.2708L37.0292 34.6896C35.3813 36.1188 33.2375 36.9792 30.875 36.9792Z" fill="#5C940D"/>
</svg>
