<svg width="20" height="17" viewBox="0 0 20 17" fill="none" xmlns="http://www.w3.org/2000/svg">
<path d="M19.6947 2.44701C18.9704 2.75912 18.1823 2.98374 17.3704 3.07123C18.2133 2.57099 18.8445 1.78071 19.1456 0.848636C18.3547 1.31867 17.4882 1.64826 16.5846 1.82279C16.207 1.41948 15.7502 1.09818 15.2429 0.878919C14.7355 0.659657 14.1883 0.54713 13.6355 0.54835C11.3988 0.54835 9.60001 2.35953 9.60001 4.58212C9.60001 4.89423 9.63788 5.20634 9.69942 5.50662C6.35031 5.33165 3.36332 3.73328 1.37752 1.28606C1.01568 1.90346 0.826069 2.60644 0.828403 3.32186C0.828403 4.72162 1.54083 5.95587 2.62722 6.68176C1.987 6.65657 1.36176 6.48078 0.802368 6.16867V6.21833C0.802368 8.17846 2.18935 9.80285 4.03788 10.1764C3.6908 10.2665 3.33375 10.3126 2.97515 10.3136C2.71243 10.3136 2.46391 10.2876 2.21302 10.2521C2.72426 11.8505 4.21302 13.0114 5.98581 13.0493C4.59882 14.1345 2.86154 14.7729 0.975149 14.7729C0.636687 14.7729 0.324261 14.7611 0 14.7233C1.78935 15.8701 3.91243 16.5321 6.19882 16.5321C13.6213 16.5321 17.6829 10.3892 17.6829 5.05738C17.6829 4.88241 17.6829 4.70744 17.671 4.53247C18.4568 3.9579 19.1456 3.2462 19.6947 2.44701Z" fill="white" fill-opacity="0.7"/>
</svg>
