<svg width="123" height="46" viewBox="0 0 123 46" fill="none" xmlns="http://www.w3.org/2000/svg">
<path d="M14.7911 4.54297H10.5724V0.861328H22.672V1.75977L17.9454 9.52344H22.672V13H10.1134V12.3359L14.7911 4.54297ZM33.131 4.31836C33.0008 4.25326 32.8315 4.2207 32.6232 4.2207C32.4213 4.2207 32.1967 4.28255 31.9493 4.40625C31.7019 4.52344 31.4578 4.6862 31.2169 4.89453C30.7091 5.33724 30.2827 5.87435 29.9376 6.50586C29.5926 7.13737 29.42 7.72005 29.42 8.25391C29.42 8.78125 29.6219 9.13607 30.0255 9.31836C30.1687 9.38346 30.3445 9.41602 30.5529 9.41602C30.7612 9.41602 30.9793 9.35417 31.2072 9.23047C31.435 9.10026 31.6629 8.92773 31.8908 8.71289C32.366 8.26367 32.7827 7.72005 33.1408 7.08203C33.4988 6.4375 33.6779 5.86133 33.6779 5.35352C33.6779 4.8457 33.4956 4.50065 33.131 4.31836ZM31.2365 13.3613C29.3745 13.3613 27.7697 12.7721 26.422 11.5938C24.9832 10.3438 24.2638 8.77148 24.2638 6.87695C24.2638 4.97591 24.9376 3.42318 26.2853 2.21875C27.6329 1.00781 29.2963 0.402344 31.2755 0.402344C33.2547 0.402344 34.9181 0.994792 36.2658 2.17969C37.6134 3.35807 38.2905 4.93685 38.297 6.91602C38.3035 8.18555 37.9812 9.30859 37.3302 10.2852C36.6792 11.2617 35.81 12.0169 34.7228 12.5508C33.6355 13.0846 32.4734 13.3548 31.2365 13.3613ZM48.6388 4.31836C48.5086 4.25326 48.3393 4.2207 48.131 4.2207C47.9292 4.2207 47.7046 4.28255 47.4572 4.40625C47.2098 4.52344 46.9656 4.6862 46.7247 4.89453C46.2169 5.33724 45.7905 5.87435 45.4454 6.50586C45.1004 7.13737 44.9279 7.72005 44.9279 8.25391C44.9279 8.78125 45.1297 9.13607 45.5333 9.31836C45.6766 9.38346 45.8523 9.41602 46.0607 9.41602C46.269 9.41602 46.4871 9.35417 46.715 9.23047C46.9428 9.10026 47.1707 8.92773 47.3986 8.71289C47.8738 8.26367 48.2905 7.72005 48.6486 7.08203C49.0066 6.4375 49.1857 5.86133 49.1857 5.35352C49.1857 4.8457 49.0034 4.50065 48.6388 4.31836ZM46.7443 13.3613C44.8823 13.3613 43.2775 12.7721 41.9298 11.5938C40.491 10.3438 39.7716 8.77148 39.7716 6.87695C39.7716 4.97591 40.4454 3.42318 41.7931 2.21875C43.1408 1.00781 44.8042 0.402344 46.7833 0.402344C48.7625 0.402344 50.4259 0.994792 51.7736 2.17969C53.1212 3.35807 53.7983 4.93685 53.8048 6.91602C53.8113 8.18555 53.4891 9.30859 52.838 10.2852C52.187 11.2617 51.3178 12.0169 50.2306 12.5508C49.1434 13.0846 47.9812 13.3548 46.7443 13.3613Z" fill="#96BE14"/>
<path fill-rule="evenodd" clip-rule="evenodd" d="M100.043 39.1758L100.041 39.1786C99.2861 40.8486 96.4344 43.2453 90.9095 43.2453C84.1964 43.2453 81.7151 40.9818 81.0193 39.1405C80.6889 38.2662 80.6354 36.6962 80.9139 34.9955C81.1703 33.4302 81.7227 31.6585 82.6984 30.0648C82.3749 29.7406 82.0799 29.3272 81.8816 28.8625C81.5794 28.1544 81.4828 27.2732 81.9293 26.4123C82.4313 25.4446 83.0394 24.7307 83.8014 24.2826C84.5674 23.8322 85.4243 23.6882 86.3534 23.7468C87.3013 23.8065 87.8731 24.4443 88.1851 25.0774C88.3572 25.4268 88.4687 25.8054 88.5375 26.161C89.4734 25.9706 90.321 25.9193 90.9237 25.9447C91.5699 25.9453 92.1685 25.9869 92.7219 26.0619C92.7987 25.7028 92.9203 25.3227 93.106 24.9764C93.4272 24.3778 93.9904 23.8032 94.8858 23.7468C95.8149 23.6882 96.6719 23.8322 97.4378 24.2826C98.1998 24.7307 98.808 25.4446 99.3099 26.4123C99.7327 27.2275 99.6688 28.0631 99.4028 28.7513C99.2223 29.2184 98.9436 29.6352 98.6341 29.968C101.043 34.2105 100.667 37.7585 100.044 39.173L100.043 39.1758ZM97.8074 29.8466C98.5735 29.2527 99.3682 27.9386 98.732 26.7121C97.8039 24.9228 96.5973 24.2913 94.9267 24.3965C93.9925 24.4554 93.5481 25.3405 93.3652 26.1675C93.3154 26.3926 93.285 26.6135 93.2693 26.8122C93.0628 26.7715 92.8481 26.7358 92.6249 26.7057C92.1004 26.6351 91.5295 26.5957 90.9095 26.5957C90.3501 26.5708 89.5318 26.6192 88.6224 26.8082C88.4122 26.8519 88.1971 26.9031 87.9792 26.9627C87.9705 26.7675 87.9469 26.5427 87.903 26.3091C87.7405 25.4447 87.3003 24.4588 86.3125 24.3965C84.6419 24.2913 83.4353 24.9228 82.5072 26.7121C81.8439 27.991 82.7363 29.3651 83.5297 29.9187C83.5387 29.925 83.5478 29.9312 83.5568 29.9373C83.5278 29.9796 83.4991 30.022 83.4707 30.0647C81.328 33.2849 81.0948 37.4986 81.6283 38.9104C82.1852 40.3839 84.3198 42.5942 90.9095 42.5942C96.2636 42.5942 98.8294 40.2787 99.4481 38.9104C99.9965 37.6665 100.419 34.1358 97.8074 29.8466Z" fill="#8DCC2D"/>
<path d="M94.9268 24.3966C93.5904 24.4808 93.2562 26.256 93.2562 27.1332C95.1867 27.1332 96.8449 29.0979 97.4328 30.0803C98.2681 29.6943 99.4746 28.1436 98.7321 26.7121C97.804 24.9228 96.5974 24.2913 94.9268 24.3966Z" fill="url(#paint0_linear_5479_630)"/>
<path d="M94.6656 25.8701C94.2201 26.4595 94.1706 27.3788 94.2015 27.7647L96.3362 29.0277C98.0068 28.5015 97.914 27.3437 97.5428 26.7121C97.1715 26.0806 95.2225 25.1333 94.6656 25.8701Z" fill="#8DCC2D"/>
<g style="mix-blend-mode:multiply" opacity="0.2">
<mask id="mask0_5479_630" style="mask-type:alpha" maskUnits="userSpaceOnUse" x="93" y="24" width="6" height="7">
<path d="M94.9268 24.3966C93.5904 24.4808 93.2562 26.256 93.2562 27.1332C95.1867 27.1332 96.8449 29.0979 97.4328 30.0803C98.2681 29.6943 99.4746 28.1436 98.7321 26.7121C97.804 24.9228 96.5974 24.2913 94.9268 24.3966Z" fill="#9A4F01"/>
</mask>
<g mask="url(#mask0_5479_630)">
<path d="M98.5184 29.1888C97.3573 27.5478 95.8257 26.6491 93.8457 26.6023C93.3962 26.5917 92.5783 26.6334 92.2881 26.8487C93.6154 27.4431 96.9645 29.402 97.7718 31.743C98.3492 31.1191 99.0948 30.0034 98.5184 29.1888Z" fill="#8DCC2D"/>
</g>
</g>
<path d="M86.3124 24.3966C87.6489 24.4808 87.983 26.256 87.983 27.1332C86.0525 27.1332 84.3943 29.0979 83.8065 30.0803C82.9712 29.6943 81.7647 28.1436 82.5071 26.7121C83.4353 24.9228 84.6418 24.2913 86.3124 24.3966Z" fill="url(#paint1_linear_5479_630)"/>
<path d="M86.5737 25.8701C87.0192 26.4595 87.0687 27.3788 87.0377 27.7647L84.9031 29.0277C83.2324 28.5015 83.3253 27.3437 83.6965 26.7121C84.0677 26.0806 86.0168 25.1333 86.5737 25.8701Z" fill="#8DCC2D"/>
<g style="mix-blend-mode:multiply" opacity="0.2">
<mask id="mask1_5479_630" style="mask-type:alpha" maskUnits="userSpaceOnUse" x="82" y="24" width="6" height="7">
<path d="M86.3124 24.3966C87.6489 24.4808 87.983 26.256 87.983 27.1332C86.0525 27.1332 84.3943 29.0979 83.8065 30.0803C82.9712 29.6943 81.7647 28.1436 82.5071 26.7121C83.4353 24.9228 84.6418 24.2913 86.3124 24.3966Z" fill="#9A4F01"/>
</mask>
<g mask="url(#mask1_5479_630)">
<path d="M82.6092 29.6815C83.5936 27.8121 85.9694 26.6491 87.9494 26.6024C88.3989 26.5918 88.3268 26.7566 88.617 26.9719C87.2897 27.5663 84.2744 29.402 83.4671 31.743C82.8896 31.1192 82.1384 30.5755 82.6092 29.6815Z" fill="#8DCC2D"/>
</g>
</g>
<path d="M83.7633 29.6481C85.6938 27.0378 89.332 26.5256 90.9098 26.5958C95.3647 26.5958 97.2828 28.6307 97.685 29.6481C100.432 34.0267 100.005 37.6474 99.4484 38.9104C98.8297 40.2787 96.264 42.5943 90.9098 42.5943C84.3202 42.5943 82.1855 40.3839 81.6286 38.9104C81.0718 37.4369 81.3502 32.911 83.7633 29.6481Z" fill="url(#paint2_linear_5479_630)"/>
<ellipse cx="90.5125" cy="38.7454" rx="3.6844" ry="2.90161" fill="url(#paint3_radial_5479_630)"/>
<ellipse cx="90.5088" cy="37.8235" rx="0.98146" ry="0.543251" fill="black"/>
<path d="M84.3173 30.8656C85.8885 29.2036 87.3672 28.8125 90.6942 28.8125C94.391 28.8125 96.3009 30.1813 96.7938 30.8656C99.474 34.5808 98.2725 37.905 95.7772 37.905C93.2819 37.905 92.9123 35.754 90.6942 35.754C88.4762 35.754 88.5686 37.5139 85.334 37.905C82.0993 38.296 81.9145 33.4076 84.3173 30.8656Z" fill="#8DCC2D"/>
<path d="M88.3933 34.5947C88.169 35.8815 86.9143 36.8607 85.7517 36.6581C84.589 36.4555 83.9586 35.1478 84.1828 33.861C84.4071 32.5741 85.5314 31.6952 86.6941 31.8978C87.8568 32.1004 88.6175 33.3079 88.3933 34.5947Z" fill="black"/>
<ellipse cx="86.4459" cy="33.446" rx="2.0769" ry="2.65951" transform="rotate(6.91169 86.4459 33.446)" fill="white"/>
<ellipse cx="86.6362" cy="33.1579" rx="1.39632" ry="1.90721" transform="rotate(6.91169 86.6362 33.1579)" fill="black"/>
<path d="M92.6771 34.5947C92.9013 35.8815 94.156 36.8607 95.3187 36.6581C96.4813 36.4555 97.1117 35.1478 96.8875 33.861C96.6632 32.5741 95.5389 31.6952 94.3762 31.8978C93.2135 32.1004 92.4528 33.3079 92.6771 34.5947Z" fill="black"/>
<ellipse rx="2.0769" ry="2.65951" transform="matrix(-0.992733 0.120339 0.12034 0.992733 94.6244 33.446)" fill="white"/>
<ellipse rx="1.39632" ry="1.90721" transform="matrix(-0.992733 0.120339 0.120339 0.992733 94.4342 33.1579)" fill="black"/>
<g style="mix-blend-mode:multiply" opacity="0.1">
<mask id="mask2_5479_630" style="mask-type:alpha" maskUnits="userSpaceOnUse" x="81" y="26" width="19" height="17">
<path d="M83.7633 29.6481C85.6938 27.0378 89.332 26.5256 90.9098 26.5958C95.3647 26.5958 97.2828 28.6307 97.685 29.6481C100.432 34.0267 100.005 37.6474 99.4484 38.9104C98.8297 40.2787 96.264 42.5943 90.9098 42.5943C84.3202 42.5943 82.1855 40.3839 81.6286 38.9104C81.0718 37.4369 81.3502 32.911 83.7633 29.6481Z" fill="#2A4501"/>
</mask>
<g mask="url(#mask2_5479_630)">
<path d="M92.5435 39.8661C84.066 40.6181 78.1053 36.5554 76.1846 34.4301C78.3535 40.3595 82.1842 45.8865 92.9493 44.9316C101.561 44.1678 105.434 35.8319 106.293 31.7595C105.242 34.1484 101.021 39.1142 92.5435 39.8661Z" fill="#9AFF00"/>
</g>
</g>
<path d="M18.441 20.7256L20.7643 27.9492L25.8297 21.1572C25.999 20.9287 26.1259 20.7806 26.2106 20.7129C26.2952 20.6452 26.4221 20.6113 26.5914 20.6113C26.7607 20.6113 26.9765 20.7933 27.2389 21.1572L31.9615 27.873L34.2467 20.7256H41.5084L34.8815 40.4795C34.5937 41.3258 34.107 41.749 33.4215 41.749C32.7359 41.749 32.1223 41.3597 31.5807 40.5811L25.9059 32.3926L19.7994 40.6064C19.2493 41.3343 18.6357 41.6982 17.9586 41.6982C17.2815 41.6982 16.7864 41.2751 16.4733 40.4287L9.33849 20.7256H18.441ZM47.8053 17.9072C49.0494 17.9072 49.9719 18.1696 50.5729 18.6943C51.1738 19.2106 51.47 19.8708 51.4615 20.6748C51.4615 21.4788 51.0764 22.2194 50.3063 22.8965C49.5445 23.5736 48.5247 23.9121 47.2467 23.9121C45.4524 23.9121 44.3352 23.3704 43.8951 22.2871C43.7682 21.9824 43.7047 21.6439 43.7047 21.2715C43.7047 20.8991 43.7936 20.5098 43.9713 20.1035C44.149 19.6973 44.4156 19.3333 44.7711 19.0117C45.5582 18.2754 46.5696 17.9072 47.8053 17.9072ZM51.2457 41H43.8951V25.2197H51.2457V41ZM61.5543 41H54.3561V19.6338H61.5543V41ZM76.3063 29.9551C74.4274 29.515 73.0605 29.2949 72.2057 29.2949C71.9602 29.2949 71.7698 29.3499 71.6344 29.46C71.5074 29.57 71.444 29.6927 71.444 29.8281C71.444 30.1074 71.791 30.391 72.485 30.6787C73.1874 30.958 73.8307 31.2331 74.4147 31.5039C74.9986 31.7747 75.5022 32.1048 75.9254 32.4941C76.8395 33.3405 77.2965 34.6016 77.2965 36.2773C77.2965 37.9447 76.6914 39.2269 75.4811 40.124C74.2708 41.0212 72.6331 41.4697 70.568 41.4697C68.5029 41.4697 66.8525 41.2793 65.6168 40.8984C65.0751 40.7376 64.6604 40.5472 64.3727 40.3271V35.6172C64.4912 35.6257 64.6985 35.6807 64.9947 35.7822C65.291 35.8838 65.7818 36.0446 66.4674 36.2646C67.1529 36.4762 67.775 36.582 68.3336 36.582C68.9007 36.582 69.1842 36.3747 69.1842 35.96C69.1842 35.6383 68.9303 35.3252 68.4225 35.0205C68.194 34.8851 67.9358 34.7454 67.6481 34.6016C66.4547 34.0176 65.5999 33.3447 65.0836 32.583C64.5758 31.8128 64.3219 30.9115 64.3219 29.8789C64.3219 28.0423 65.0667 26.6712 66.5563 25.7656C67.8089 25.0039 69.4466 24.623 71.4693 24.623C72.8828 24.623 74.3004 24.7627 75.7223 25.042C76.027 25.1012 76.2216 25.1436 76.3063 25.1689V29.9551Z" fill="#183C0A"/>
<path d="M111.739 29.5107C111.062 29.5107 110.723 30.0566 110.723 31.1484V41H103.182V25.2197H107.347L109.162 27.6826C109.839 26.7432 110.774 25.9984 111.968 25.4482C113.169 24.8981 114.291 24.623 115.332 24.623C117.245 24.623 118.76 25.1309 119.877 26.1465C121.002 27.1621 121.565 28.5247 121.565 30.2344V41H113.973V33.3828C113.973 30.8014 113.229 29.5107 111.739 29.5107Z" fill="#183C0A"/>
<defs>
<linearGradient id="paint0_linear_5479_630" x1="96.11" y1="24.3854" x2="96.11" y2="30.0803" gradientUnits="userSpaceOnUse">
<stop stop-color="#8DCC2D"/>
<stop offset="1" stop-color="#8DCC2D"/>
</linearGradient>
<linearGradient id="paint1_linear_5479_630" x1="85.1292" y1="24.3854" x2="85.1292" y2="30.0803" gradientUnits="userSpaceOnUse">
<stop stop-color="#8DCC2D"/>
<stop offset="1" stop-color="#8DCC2D"/>
</linearGradient>
<linearGradient id="paint2_linear_5479_630" x1="90.7312" y1="26.6024" x2="90.5985" y2="42.5941" gradientUnits="userSpaceOnUse">
<stop stop-color="#8DCC2D"/>
<stop offset="0.885417" stop-color="#558C00"/>
</linearGradient>
<radialGradient id="paint3_radial_5479_630" cx="0" cy="0" r="1" gradientUnits="userSpaceOnUse" gradientTransform="translate(90.5125 38.7454) rotate(90) scale(2.43735 3.01916)">
<stop offset="0.598958"/>
<stop offset="0.838542" stop-opacity="0"/>
</radialGradient>
</defs>
</svg>
