<svg width="55" height="55" viewBox="0 0 55 55" fill="none" xmlns="http://www.w3.org/2000/svg">
<rect width="55" height="55" rx="27.5" fill="#5C940D" fill-opacity="0.1"/>
<path fill-rule="evenodd" clip-rule="evenodd" d="M37.7083 42.0833C39.3125 42.0833 40.625 40.7708 40.625 39.1666V18.75C40.625 17.1458 39.3125 15.8333 37.7083 15.8333H36.25V12.9166H33.3333V15.8333H21.6667V12.9166H18.75V15.8333H17.2917C15.6729 15.8333 14.3896 17.1458 14.3896 18.75L14.375 39.1666C14.375 40.7708 15.6729 42.0833 17.2917 42.0833H37.7083ZM23.125 26.0416H20.2083V28.9583H23.125V26.0416ZM17.2917 21.6666H37.7083V18.75H17.2917V21.6666ZM37.7083 24.5833V39.1666H17.2917V24.5833H37.7083ZM31.875 28.9583H34.7917V26.0416H31.875V28.9583ZM28.9583 28.9583H26.0417V26.0416H28.9583V28.9583Z" fill="#5C940D"/>
</svg>
