<svg width="18" height="19" viewBox="0 0 18 19" fill="none" xmlns="http://www.w3.org/2000/svg">
<path d="M9 0.654785C6.55338 0.654785 6.24847 0.666587 5.29097 0.707051C4.32954 0.754259 3.67921 0.903189 3.10539 1.12574C2.50482 1.35224 1.96093 1.70686 1.51163 2.16488C1.05186 2.61268 0.696685 3.15632 0.471434 3.75702C0.248656 4.33026 0.099575 4.97993 0.052319 5.94039C0.00900113 6.89747 0 7.20151 0 9.64565C0 12.0898 0.011814 12.3944 0.052319 13.3509C0.099575 14.3086 0.248656 14.961 0.471434 15.5343C0.698161 16.1342 1.05314 16.6776 1.51163 17.1264C1.95988 17.5857 2.50408 17.9405 3.10539 18.1656C3.67921 18.3853 4.33235 18.537 5.29097 18.5842C6.24903 18.6275 6.55338 18.6365 9 18.6365C11.4466 18.6365 11.7515 18.6247 12.709 18.5842C13.6676 18.537 14.3208 18.3847 14.8946 18.1656C15.4952 17.9391 16.0391 17.5844 16.4884 17.1264C16.9487 16.6791 17.304 16.1353 17.5286 15.5343C17.7485 14.961 17.9004 14.3086 17.9477 13.3509C17.991 12.3938 18 12.0898 18 9.64565C18 7.20151 17.9882 6.89691 17.9477 5.94039C17.9004 4.98274 17.748 4.32689 17.5286 3.75702C17.3018 3.15706 16.9469 2.61372 16.4884 2.16488C16.0406 1.70499 15.4963 1.35008 14.8946 1.12574C14.3208 0.903189 13.6676 0.754259 12.709 0.707051C11.751 0.663777 11.4466 0.654785 9 0.654785ZM9 2.27334C11.4027 2.27334 11.6896 2.28514 12.6393 2.32561C13.5152 2.36663 13.9922 2.51275 14.309 2.63639C14.7005 2.78078 15.0549 3.0106 15.3464 3.30911C15.6447 3.599 15.8738 3.95223 16.0169 4.34262C16.1407 4.65903 16.287 5.1356 16.328 6.01064C16.3685 6.95929 16.3804 7.24647 16.3804 9.64621C16.3804 12.0459 16.3685 12.3331 16.3247 13.2818C16.2774 14.1568 16.1311 14.6334 16.0079 14.9498C15.8375 15.3719 15.6473 15.6669 15.3334 15.9861C15.041 16.2828 14.6868 16.5115 14.296 16.656C13.9832 16.7797 13.4994 16.9258 12.6201 16.9668C11.6655 17.0073 11.3842 17.0191 8.97525 17.0191C6.56632 17.0191 6.2856 17.0073 5.32979 16.9634C4.45387 16.9162 3.97062 16.7701 3.65389 16.647C3.22634 16.4767 2.93324 16.2868 2.61933 15.9732C2.3026 15.6568 2.1012 15.3556 1.94593 14.9369C1.81991 14.6244 1.6759 14.1411 1.6292 13.2627C1.59714 12.3202 1.58195 12.028 1.58195 9.63272C1.58195 7.2386 1.59714 6.9458 1.6292 5.99153C1.6759 5.11312 1.81991 4.63093 1.94593 4.31733C2.1012 3.88965 2.30316 3.59741 2.61933 3.28101C2.93268 2.96797 3.22634 2.76565 3.65389 2.60717C3.97062 2.48409 4.44206 2.33797 5.32135 2.29414C6.27603 2.25985 6.55732 2.24749 8.96287 2.24749L9 2.27334ZM9 5.03107C8.39318 5.03085 7.79226 5.15009 7.23159 5.38197C6.67092 5.61385 6.16148 5.95383 5.7324 6.38248C5.30331 6.81114 4.96298 7.32005 4.73086 7.88016C4.49875 8.44026 4.37939 9.04057 4.37961 9.64677C4.37939 10.253 4.49875 10.8533 4.73086 11.4134C4.96298 11.9735 5.30331 12.4824 5.7324 12.9111C6.16148 13.3397 6.67092 13.6797 7.23159 13.9116C7.79226 14.1435 8.39318 14.2627 9 14.2625C9.60682 14.2627 10.2077 14.1435 10.7684 13.9116C11.3291 13.6797 11.8385 13.3397 12.2676 12.9111C12.6967 12.4824 13.037 11.9735 13.2691 11.4134C13.5013 10.8533 13.6206 10.253 13.6204 9.64677C13.6206 9.04057 13.5013 8.44026 13.2691 7.88016C13.037 7.32005 12.6967 6.81114 12.2676 6.38248C11.8385 5.95383 11.3291 5.61385 10.7684 5.38197C10.2077 5.15009 9.60682 5.03085 9 5.03107ZM9 12.6439C7.34154 12.6439 5.99981 11.3035 5.99981 9.64677C5.99981 7.99 7.34154 6.64963 9 6.64963C10.6585 6.64963 12.0002 7.99 12.0002 9.64677C12.0002 11.3035 10.6585 12.6439 9 12.6439ZM14.8867 4.84674C14.8864 5.13317 14.7723 5.40776 14.5695 5.6102C14.3666 5.81263 14.0916 5.92634 13.8049 5.92634C13.6631 5.92634 13.5228 5.89844 13.3918 5.84424C13.2608 5.79004 13.1418 5.7106 13.0415 5.61046C12.9413 5.51031 12.8618 5.39142 12.8075 5.26057C12.7533 5.12973 12.7253 4.98949 12.7253 4.84786C12.7253 4.70623 12.7533 4.56599 12.8075 4.43515C12.8618 4.3043 12.9413 4.18541 13.0415 4.08526C13.1418 3.98512 13.2608 3.90568 13.3918 3.85148C13.5228 3.79728 13.6631 3.76938 13.8049 3.76938C14.3996 3.76938 14.8867 4.2527 14.8867 4.84674Z" fill="white" fill-opacity="0.7"/>
</svg>
