<svg width="45" height="45" viewBox="0 0 45 45" fill="none" xmlns="http://www.w3.org/2000/svg">
<path fill-rule="evenodd" clip-rule="evenodd" d="M22.4812 3.75C12.1312 3.75 3.75 12.15 3.75 22.5C3.75 32.85 12.1312 41.25 22.4812 41.25C32.85 41.25 41.25 32.85 41.25 22.5C41.25 12.15 32.85 3.75 22.4812 3.75ZM22.5 37.5C14.2125 37.5 7.5 30.7875 7.5 22.5C7.5 14.2125 14.2125 7.5 22.5 7.5C30.7875 7.5 37.5 14.2125 37.5 22.5C37.5 30.7875 30.7875 37.5 22.5 37.5ZM20.625 13.125H23.4375V22.9688L31.875 27.975L30.4688 30.2812L20.625 24.375V13.125Z" fill="#5C940D"/>
</svg>
